<svg xmlns="http://www.w3.org/2000/svg" viewBox="0 0 188.18 187.15"><defs><style>.cls-1,.cls-4{fill:#15213d;}.cls-2{fill:#fff;}.cls-3{fill:#e6525b;}.cls-4{stroke:#15213d;stroke-miterlimit:10;stroke-width:0.75px;}</style></defs><g id="Layer_2" data-name="Layer 2"><g id="Layer_1-2" data-name="Layer 1"><path class="cls-1" d="M163,43.79a1.07,1.07,0,0,1-1-.76A57.9,57.9,0,0,0,80,8.65a1.08,1.08,0,0,1-1-1.92,60.08,60.08,0,0,1,85.1,35.66,1.08,1.08,0,0,1-.71,1.36A1.22,1.22,0,0,1,163,43.79Z"/><polygon class="cls-1" points="172.67 37.66 165.57 58.05 151.46 41.71 172.67 37.66"/><path class="cls-1" d="M94.77,31.73a24.36,24.36,0,0,0-7.13,1.06,28.33,28.33,0,0,0-56,0,24.49,24.49,0,1,0-7.14,47.92H94.77a24.49,24.49,0,1,0,0-49Z"/><path class="cls-2" d="M62.38,61.46l.11-2.38a.65.65,0,0,1,0-.24A7.83,7.83,0,0,0,64,58.07a.57.57,0,0,1,.53.09l2.12,1.08a.5.5,0,0,0,.7-.09h0l1.45-1.9a.51.51,0,0,0-.09-.71l-1.6-1.75A.58.58,0,0,1,67,54.6,8.09,8.09,0,0,0,67.52,53a.59.59,0,0,1,.44-.31l2.26-.73a.5.5,0,0,0,.43-.57h0L70.34,49a.51.51,0,0,0-.57-.43l-2.37-.11a.65.65,0,0,1-.24,0,8.07,8.07,0,0,0-.78-1.52.62.62,0,0,1,.1-.54l1.08-2.11a.5.5,0,0,0-.09-.7h0l-1.91-1.46a.5.5,0,0,0-.7.1l-1.76,1.6a.65.65,0,0,1-.18.15,8.39,8.39,0,0,0-1.63-.53A.62.62,0,0,1,61,43l-.73-2.26a.5.5,0,0,0-.56-.43h0l-2.38.32a.5.5,0,0,0-.43.56l-.11,2.38a.59.59,0,0,1,0,.23,7.86,7.86,0,0,0-1.53.78.63.63,0,0,1-.53-.09l-2.12-1.09a.51.51,0,0,0-.7.1h0l-1.46,1.9a.51.51,0,0,0,.1.7l1.6,1.76a.67.67,0,0,1,.16.18,8.39,8.39,0,0,0-.53,1.63.62.62,0,0,1-.44.31L49,50.7a.51.51,0,0,0-.43.56h0l.32,2.38a.5.5,0,0,0,.56.43l2.38.11a.65.65,0,0,1,.24,0,7.52,7.52,0,0,0,.78,1.52.62.62,0,0,1-.1.54l-1.08,2.11a.5.5,0,0,0,.09.7h0l1.91,1.46a.5.5,0,0,0,.7-.1l1.75-1.6a.66.66,0,0,1,.19-.15A7.56,7.56,0,0,0,58,59.2a.58.58,0,0,1,.3.45L59,61.91a.49.49,0,0,0,.56.43h0L62,62A.5.5,0,0,0,62.38,61.46Zm-6.16-9.68a3.45,3.45,0,1,1,3.87,2.95A3.44,3.44,0,0,1,56.22,51.78Z"/><path class="cls-3" d="M89.55,138a59.92,59.92,0,0,1-49.79-26.46A61.06,61.06,0,0,1,34.52,102a1.09,1.09,0,0,1,.55-1.43,1.08,1.08,0,0,1,1.43.56A57.9,57.9,0,0,0,121.9,126a1.09,1.09,0,0,1,1.22,1.8A60.07,60.07,0,0,1,89.55,138Z"/><polygon class="cls-3" points="26.5 107.67 31.23 86.6 47.11 101.24 26.5 107.67"/><path class="cls-3" d="M163.69,64.94A24.43,24.43,0,0,0,156.55,66a28.32,28.32,0,0,0-56,0,24.49,24.49,0,1,0-7.14,47.92h70.28a24.49,24.49,0,1,0,0-49Z"/><path class="cls-2" d="M117.66,88.08l2.64-.15a.46.46,0,0,1,.26,0,9.51,9.51,0,0,0,1,1.59.67.67,0,0,1,0,.6l-.94,2.47a.56.56,0,0,0,.19.77h0l2.27,1.38a.56.56,0,0,0,.77-.19l1.75-2a.69.69,0,0,1,.19-.19,8.91,8.91,0,0,0,1.86.39.65.65,0,0,1,.39.45l1.08,2.42a.56.56,0,0,0,.68.41h0l2.58-.63a.58.58,0,0,0,.42-.68l-.17-2.64a.61.61,0,0,1,0-.27,8.88,8.88,0,0,0,1.59-1,.64.64,0,0,1,.6,0l2.47.94a.56.56,0,0,0,.77-.19h0l1.38-2.27a.56.56,0,0,0-.19-.77l-2-1.75a.69.69,0,0,1-.19-.19,9.6,9.6,0,0,0,.39-1.86.69.69,0,0,1,.45-.4l2.42-1.07a.57.57,0,0,0,.41-.68h0L140.11,80a.55.55,0,0,0-.67-.4l-2.64.15a.5.5,0,0,1-.27,0,8.88,8.88,0,0,0-1-1.59.67.67,0,0,1,0-.6l.95-2.47a.57.57,0,0,0-.18-.77h0L134,73a.56.56,0,0,0-.77.19l-1.75,2a.69.69,0,0,1-.19.19,8.91,8.91,0,0,0-1.86-.39.69.69,0,0,1-.4-.45L128,72.05a.57.57,0,0,0-.68-.41h0l-2.58.63a.55.55,0,0,0-.41.68l.15,2.64a.82.82,0,0,1,0,.27,8.88,8.88,0,0,0-1.59,1,.67.67,0,0,1-.6,0l-2.47-1a.56.56,0,0,0-.77.19h0l-1.38,2.27a.56.56,0,0,0,.19.77l2,1.75a.69.69,0,0,1,.19.19,9.6,9.6,0,0,0-.39,1.86.69.69,0,0,1-.45.4l-2.42,1.07a.57.57,0,0,0-.41.68h0l.63,2.59A.55.55,0,0,0,117.66,88.08Zm10-8a3.83,3.83,0,1,1-2.81,4.63A3.83,3.83,0,0,1,127.64,80.12Z"/><path class="cls-4" d="M16.34,165.16a12.78,12.78,0,0,1-2.13.91,11.15,11.15,0,0,1-1.94.43,14.89,14.89,0,0,1-2.18.14q-4.9,0-7.17-2.89a11.38,11.38,0,0,1-2.27-7.27A11.15,11.15,0,0,1,3,149.16q2.36-2.86,7.23-2.86a26.09,26.09,0,0,1,6.09.85v2.58a30.57,30.57,0,0,0-4-1.19,13.14,13.14,0,0,0-2.1-.18,5.59,5.59,0,0,0-5,2.36,10.26,10.26,0,0,0-1.56,5.79,8.86,8.86,0,0,0,1.8,5.78,6.2,6.2,0,0,0,5.09,2.2,10.2,10.2,0,0,0,1.83-.16,11.8,11.8,0,0,0,1.81-.48,17.67,17.67,0,0,0,2.24-1Z"/><path class="cls-4" d="M20.33,166.16V146.78h2.75V164.1h8.6v2.06Z"/><path class="cls-4" d="M42.55,166.64a9.08,9.08,0,0,1-4.79-1.23,8.15,8.15,0,0,1-3.15-3.59,13.35,13.35,0,0,1,0-10.59,8.09,8.09,0,0,1,3.14-3.65,9.81,9.81,0,0,1,9.69,0,8,8,0,0,1,3.15,3.65,13.49,13.49,0,0,1,0,10.46,8.14,8.14,0,0,1-3.12,3.65A8.92,8.92,0,0,1,42.55,166.64Zm0-2a5.29,5.29,0,0,0,4.53-2.19,9.87,9.87,0,0,0,1.6-6,9.7,9.7,0,0,0-1.61-5.92,5.33,5.33,0,0,0-4.52-2.16A5.34,5.34,0,0,0,38,150.52a9.76,9.76,0,0,0-1.61,5.92,9.87,9.87,0,0,0,1.6,6A5.29,5.29,0,0,0,42.55,164.59Z"/><path class="cls-4" d="M55.29,146.78H58V159c0,2.13.4,3.59,1.19,4.39a4.54,4.54,0,0,0,3.33,1.19,5.06,5.06,0,0,0,2.28-.47,3.16,3.16,0,0,0,1.44-1.51,8.68,8.68,0,0,0,.51-3.51V146.78H69.2v12.28a9.82,9.82,0,0,1-.78,4.55,5.77,5.77,0,0,1-2.2,2.21,7.48,7.48,0,0,1-3.77.82,8.33,8.33,0,0,1-4-.85,5.63,5.63,0,0,1-2.33-2.33,10,10,0,0,1-.79-4.48Z"/><path class="cls-4" d="M74,166.16V146.78h6.43a11.76,11.76,0,0,1,5.65,1.08,7.62,7.62,0,0,1,3,3.16,10.69,10.69,0,0,1,1.09,5,12.74,12.74,0,0,1-1,5.07,8.51,8.51,0,0,1-3,3.69,10.06,10.06,0,0,1-5.68,1.39Zm2.74-2.06h3.52a7.74,7.74,0,0,0,4.1-.87,5.74,5.74,0,0,0,2.14-2.75,11.12,11.12,0,0,0,.77-4.21,9.89,9.89,0,0,0-.67-3.72,5.77,5.77,0,0,0-2.15-2.7q-1.49-1-5.45-1H76.77Z"/><path class="cls-4" d="M102.59,166.16V146.78h2.75V155h9.21v-8.17h2.75v19.38h-2.75V157h-9.21v9.15Z"/><path class="cls-4" d="M130.21,166.64a9.08,9.08,0,0,1-4.79-1.23,8.09,8.09,0,0,1-3.15-3.59,12.31,12.31,0,0,1-1.12-5.35,12.58,12.58,0,0,1,1.06-5.24,8.11,8.11,0,0,1,3.15-3.65,9.81,9.81,0,0,1,9.69,0,8.11,8.11,0,0,1,3.15,3.65,13.49,13.49,0,0,1,0,10.46,8.14,8.14,0,0,1-3.12,3.65A8.92,8.92,0,0,1,130.21,166.64Zm0-2a5.29,5.29,0,0,0,4.53-2.19,9.87,9.87,0,0,0,1.6-6,9.76,9.76,0,0,0-1.61-5.92,5.82,5.82,0,0,0-9,0,9.76,9.76,0,0,0-1.61,5.92,9.87,9.87,0,0,0,1.6,6A5.29,5.29,0,0,0,130.21,164.59Z"/><path class="cls-4" d="M143,146.78h2.75V159c0,2.13.4,3.59,1.19,4.39a4.54,4.54,0,0,0,3.33,1.19,5.06,5.06,0,0,0,2.28-.47,3.16,3.16,0,0,0,1.44-1.51,8.68,8.68,0,0,0,.51-3.51V146.78h2.41v12.28a9.82,9.82,0,0,1-.78,4.55,5.77,5.77,0,0,1-2.2,2.21,7.48,7.48,0,0,1-3.77.82,8.33,8.33,0,0,1-4-.85,5.63,5.63,0,0,1-2.33-2.33A10,10,0,0,1,143,159Z"/><path class="cls-4" d="M160.51,165.79v-2.72a18.82,18.82,0,0,0,3.42,1.29,9.9,9.9,0,0,0,2,.23,3.71,3.71,0,0,0,2.64-.91,2.89,2.89,0,0,0,1-2.18,3.26,3.26,0,0,0-.51-1.77,7.81,7.81,0,0,0-2.55-1.95l-1.35-.77a11.78,11.78,0,0,1-3.6-2.78,4.62,4.62,0,0,1-.92-2.79,4.84,4.84,0,0,1,.73-2.57,5.23,5.23,0,0,1,2-1.89,6.38,6.38,0,0,1,3.1-.68,16.56,16.56,0,0,1,4.75.75v2.51a24.38,24.38,0,0,0-3-1,7.41,7.41,0,0,0-1.61-.17,3.26,3.26,0,0,0-2.5.87,2.67,2.67,0,0,0-.81,1.8,2.46,2.46,0,0,0,.39,1.27,3.62,3.62,0,0,0,1,1.11,19.86,19.86,0,0,0,1.78,1.11l1.39.79a11.53,11.53,0,0,1,3.62,2.8,5,5,0,0,1,.9,2.94,5.25,5.25,0,0,1-1.73,3.93,7.06,7.06,0,0,1-5.09,1.66,13.21,13.21,0,0,1-2-.14A25.86,25.86,0,0,1,160.51,165.79Z"/><path class="cls-4" d="M176.12,166.16V146.78H187v2.06h-8.1v6.22h6.79v2h-6.79v7h8.67v2.06Z"/><path class="cls-4" d="M5.55,186.46v-11H1.2v-1.3H11.64v1.3H7.29v11Z"/><path class="cls-4" d="M18.75,186.46V174.2h6.87v1.3H20.49v3.94h4.3v1.28h-4.3v4.44H26v1.3Z"/><path class="cls-4" d="M42.54,185.83a8,8,0,0,1-1.35.58,6.88,6.88,0,0,1-1.23.27,9.79,9.79,0,0,1-1.38.09A5.42,5.42,0,0,1,34,184.94a7.22,7.22,0,0,1-1.44-4.6,7.08,7.08,0,0,1,1.49-4.64,5.59,5.59,0,0,1,4.58-1.81,16.53,16.53,0,0,1,3.85.54v1.63a18.79,18.79,0,0,0-2.55-.75,7.91,7.91,0,0,0-1.33-.12,3.55,3.55,0,0,0-3.2,1.5,6.48,6.48,0,0,0-1,3.66A5.65,5.65,0,0,0,35.59,184a3.94,3.94,0,0,0,3.23,1.39,6.49,6.49,0,0,0,1.16-.1,6.9,6.9,0,0,0,1.14-.31,9.25,9.25,0,0,0,1.42-.66Z"/><path class="cls-4" d="M50.44,186.46V174.2h1.74v5.17H58V174.2h1.74v12.26H58v-5.79H52.18v5.79Z"/><path class="cls-4" d="M68.29,186.46V174.2H70l6.16,9.46V174.2h1.5v12.26H76L69.79,177v9.46Z"/><path class="cls-4" d="M91.22,186.77a5.74,5.74,0,0,1-3-.78,5.17,5.17,0,0,1-2-2.27,7.88,7.88,0,0,1-.71-3.39,8,8,0,0,1,.68-3.32,5.07,5.07,0,0,1,2-2.31,6.22,6.22,0,0,1,6.14,0,5.07,5.07,0,0,1,2,2.31,8.45,8.45,0,0,1,0,6.62,5.16,5.16,0,0,1-2,2.32A5.72,5.72,0,0,1,91.22,186.77Zm0-1.3a3.35,3.35,0,0,0,2.87-1.38,6.28,6.28,0,0,0,1-3.78,6.11,6.11,0,0,0-1-3.75,3.68,3.68,0,0,0-5.73,0,6.18,6.18,0,0,0-1,3.75,6.28,6.28,0,0,0,1,3.78A3.34,3.34,0,0,0,91.22,185.47Z"/><path class="cls-4" d="M104.77,186.46V174.2h1.74v11H112v1.3Z"/><path class="cls-4" d="M124.2,186.77a5.74,5.74,0,0,1-3-.78,5.15,5.15,0,0,1-2-2.27,7.73,7.73,0,0,1-.71-3.39,8,8,0,0,1,.67-3.32,5.09,5.09,0,0,1,2-2.31,6.2,6.2,0,0,1,6.13,0,5.15,5.15,0,0,1,2,2.31,8,8,0,0,1,.67,3.32,7.88,7.88,0,0,1-.67,3.3,5.1,5.1,0,0,1-2,2.32A5.67,5.67,0,0,1,124.2,186.77Zm0-1.3a3.37,3.37,0,0,0,2.88-1.38,6.35,6.35,0,0,0,1-3.78,6.18,6.18,0,0,0-1-3.75,3.68,3.68,0,0,0-5.73,0,6.18,6.18,0,0,0-1,3.75,6.28,6.28,0,0,0,1,3.78A3.37,3.37,0,0,0,124.2,185.47Z"/><path class="cls-4" d="M147,186.13a15.47,15.47,0,0,1-2.35.55,12.88,12.88,0,0,1-1.54.09,6.48,6.48,0,0,1-3.47-.79,5.08,5.08,0,0,1-1.92-2.3,8.24,8.24,0,0,1-.66-3.35,7.05,7.05,0,0,1,1.49-4.63,5.57,5.57,0,0,1,4.56-1.81,14.5,14.5,0,0,1,3.86.55v1.61a20.44,20.44,0,0,0-2.56-.75,9,9,0,0,0-1.32-.11,3.55,3.55,0,0,0-3.2,1.5,6.59,6.59,0,0,0-1,3.65,7.12,7.12,0,0,0,.42,2.47,4.08,4.08,0,0,0,1.4,1.91,4.28,4.28,0,0,0,2.65.75,6.56,6.56,0,0,0,.79-.05,6.43,6.43,0,0,0,1.09-.26v-4H147Z"/><path class="cls-4" d="M155.38,186.46V174.2h1.74v12.26Z"/><path class="cls-4" d="M165.65,186.46V174.2h6.88v1.3h-5.14v3.94h4.31v1.28h-4.31v4.44h5.49v1.3Z"/><path class="cls-4" d="M179.48,186.23v-1.72a12.32,12.32,0,0,0,2.17.82,6.57,6.57,0,0,0,1.27.14,2.33,2.33,0,0,0,1.67-.58,1.81,1.81,0,0,0,.61-1.38,2.14,2.14,0,0,0-.32-1.12,5.1,5.1,0,0,0-1.62-1.23l-.85-.49a7.43,7.43,0,0,1-2.28-1.76,2.9,2.9,0,0,1-.58-1.76,3.11,3.11,0,0,1,.46-1.64,3.37,3.37,0,0,1,1.24-1.19,4,4,0,0,1,2-.43,10.68,10.68,0,0,1,3,.47V176a16.49,16.49,0,0,0-1.89-.65,5.05,5.05,0,0,0-1-.11,2.05,2.05,0,0,0-1.58.56,1.68,1.68,0,0,0-.52,1.13,1.5,1.5,0,0,0,.25.81,2.28,2.28,0,0,0,.65.7,13.3,13.3,0,0,0,1.13.71l.88.49a7.24,7.24,0,0,1,2.29,1.78,3.15,3.15,0,0,1,.57,1.86,3.33,3.33,0,0,1-1.09,2.49,4.5,4.5,0,0,1-3.23,1.05,8.73,8.73,0,0,1-1.27-.09A13.57,13.57,0,0,1,179.48,186.23Z"/></g></g></svg>